<?xml version="1.0" encoding="UTF-8" standalone="no"?>
<!-- Created with Inkscape (http://www.inkscape.org/) -->

<svg
   xmlns:dc="http://purl.org/dc/elements/1.1/"
   xmlns:cc="http://creativecommons.org/ns#"
   xmlns:rdf="http://www.w3.org/1999/02/22-rdf-syntax-ns#"
   xmlns:svg="http://www.w3.org/2000/svg"
   xmlns="http://www.w3.org/2000/svg"
   xmlns:sodipodi="http://sodipodi.sourceforge.net/DTD/sodipodi-0.dtd"
   xmlns:inkscape="http://www.inkscape.org/namespaces/inkscape"
   width="200"
   height="288.99899"
   viewBox="0 0 52.916666 76.464316"
   version="1.1"
   id="svg4739"
   inkscape:export-filename="C:\Users\leanb\Desktop\LOGO LEAN.png"
   inkscape:export-xdpi="300"
   inkscape:export-ydpi="300"
   inkscape:version="0.92.1 r15371"
   sodipodi:docname="LOGO SVG_PARA SITE.svg">
  <defs
     id="defs4733" />
  <sodipodi:namedview
     id="base"
     pagecolor="#ffffff"
     bordercolor="#666666"
     borderopacity="1.0"
     inkscape:pageopacity="0.0"
     inkscape:pageshadow="2"
     inkscape:zoom="1.6367149"
     inkscape:cx="83.457285"
     inkscape:cy="139.03386"
     inkscape:document-units="mm"
     inkscape:current-layer="text5588"
     showgrid="false"
     showguides="true"
     inkscape:guide-bbox="true"
     inkscape:window-width="1366"
     inkscape:window-height="705"
     inkscape:window-x="-8"
     inkscape:window-y="-8"
     inkscape:window-maximized="1"
     inkscape:pagecheckerboard="true"
     units="px" />
  <metadata
     id="metadata4736">
    <rdf:RDF>
      <cc:Work
         rdf:about="">
        <dc:format>image/svg+xml</dc:format>
        <dc:type
           rdf:resource="http://purl.org/dc/dcmitype/StillImage" />
        <dc:title></dc:title>
      </cc:Work>
    </rdf:RDF>
  </metadata>
  <g
     inkscape:label="Camada 1"
     inkscape:groupmode="layer"
     id="layer1"
     transform="translate(0,-220.53568)">
    <g
       transform="matrix(1.3374732,0,0,1.3374732,-205.82847,11.136018)"
       id="g7547"
       inkscape:export-xdpi="300"
       inkscape:export-ydpi="300">
      <rect
         style="opacity:1;fill:#d4aa00;fill-opacity:1;stroke:#d4aa00;stroke-width:1;stroke-miterlimit:4;stroke-dasharray:none;stroke-opacity:1"
         id="rect7543"
         width="14.646501"
         height="14.636987"
         x="174.90073"
         y="161.19565" />
      <path
         sodipodi:nodetypes="cccc"
         inkscape:connector-curvature="0"
         id="path7545"
         d="m 174.40073,160.69565 15.64507,6.5388 -7e-5,-6.53697 z"
         style="fill:#aa8800;stroke:#aa8800;stroke-width:0;stroke-linecap:butt;stroke-linejoin:miter;stroke-miterlimit:4;stroke-dasharray:none;stroke-opacity:1" />
    </g>
    <g
       transform="matrix(1.3374732,0,0,1.3374732,-206.21678,11.136018)"
       id="g7559"
       inkscape:export-xdpi="300"
       inkscape:export-ydpi="300">
      <text
         xml:space="preserve"
         style="font-style:normal;font-variant:normal;font-weight:normal;font-stretch:normal;font-size:10.58333302px;line-height:1.25;font-family:'Bauhaus 93';-inkscape-font-specification:'Bauhaus 93, ';letter-spacing:0px;word-spacing:0px;fill:#ffffff;fill-opacity:1;stroke:none;stroke-width:0.26458332"
         x="164.90392"
         y="169.99585"
         id="text7551"><tspan
           sodipodi:role="line"
           id="tspan7549"
           x="164.90392"
           y="169.99585"
           style="font-style:normal;font-variant:normal;font-weight:bold;font-stretch:normal;font-size:9.87777805px;font-family:Arial;-inkscape-font-specification:'Arial Bold';fill:#ffffff;stroke-width:0.26458332">X</tspan></text>
      <rect
         y="161.19565"
         x="158.19591"
         height="14.636987"
         width="14.646501"
         id="rect7553"
         style="opacity:1;fill:#93a7ac;fill-opacity:1;stroke:#93a7ac;stroke-width:1;stroke-miterlimit:4;stroke-dasharray:none;stroke-opacity:1" />
      <rect
         style="opacity:1;fill:#6f918a;fill-opacity:1;stroke:#6f918a;stroke-width:0.7485432;stroke-miterlimit:4;stroke-dasharray:none;stroke-opacity:1"
         id="rect7555"
         width="11.256612"
         height="10.67116"
         x="159.92229"
         y="163.05429" />
      <path
         sodipodi:nodetypes="cccc"
         inkscape:connector-curvature="0"
         id="path7557"
         d="m 159.55187,163.19805 11.48856,-0.004 v 10.89454 -0.47273"
         style="fill:none;stroke:#53676c;stroke-width:1.02499998;stroke-linecap:butt;stroke-linejoin:miter;stroke-miterlimit:4;stroke-dasharray:none;stroke-opacity:1" />
    </g>
    <rect
       style="opacity:1;fill:#6c5353;fill-opacity:1;stroke:#536c67;stroke-width:1.42440903;stroke-miterlimit:4;stroke-dasharray:none;stroke-opacity:0"
       id="rect7561"
       width="6.9437737"
       height="13.699879"
       x="29.751448"
       y="233.27634"
       inkscape:export-xdpi="300"
       inkscape:export-ydpi="300" />
    <g
       aria-label="LEAN"
       style="font-style:normal;font-variant:normal;font-weight:normal;font-stretch:normal;font-size:14.15492439px;line-height:1.25;font-family:'Bauhaus 93';-inkscape-font-specification:'Bauhaus 93, ';letter-spacing:0px;word-spacing:0px;fill:#483e37;fill-opacity:1;stroke:none;stroke-width:0.3538731"
       id="text7567">
      <path
         d="m 4.7916517,265.77019 h 2.8061032 v 5.60529 q 0,0.6566 0.2073475,0.87777 0.2142592,0.21426 0.8363017,0.21426 h 0.1451433 v 2.73699 H 8.0400963 q -1.5343717,0 -2.3914081,-0.8916 -0.8570365,-0.8985 -0.8570365,-2.48817 z"
         style="fill:#483e37;stroke-width:0.3538731"
         id="path6312" />
      <path
         d="m 14.771979,269.44024 v 2.10112 h -1.83157 q -0.373225,0 -0.532192,0.11058 -0.152054,0.11059 -0.152054,0.37323 0,0.2972 0.158966,0.39396 0.158966,0.0899 0.649689,0.0899 h 1.886862 v 2.69552 h -2.204795 q -1.555106,0 -2.377585,-0.73954 -0.8224784,-0.74645 -0.8224784,-2.1495 v -3.6977 q 0,-1.35467 0.7740974,-2.10112 0.781009,-0.74645 2.190972,-0.74645 h 2.439789 v 2.70934 h -1.7901 q -0.725716,0 -0.725716,0.46998 0,0.27647 0.172789,0.38705 0.17279,0.10368 0.615131,0.10368 z"
         style="fill:#483e37;stroke-width:0.3538731"
         id="path6314" />
      <path
         d="m 19.990225,270.47006 v 2.48817 H 19.18157 v 2.24627 h -2.806104 v -5.99926 q 0,-1.74172 0.946887,-2.70243 0.953799,-0.96762 2.674783,-0.96762 1.658781,0 2.453613,0.87777 0.794832,0.87086 0.794832,2.69552 v 6.09602 h -2.806103 v -5.90941 q 0,-0.55292 -0.13132,-0.76718 -0.13132,-0.21426 -0.469988,-0.21426 -0.6566,0 -0.6566,0.98144 v 1.17497 z"
         style="fill:#483e37;stroke-width:0.3538731"
         id="path6316" />
      <path
         d="m 24.752307,275.2045 v -6.12367 q 0,-1.61039 0.96071,-2.57802 0.967622,-0.96762 2.571109,-0.96762 1.596576,0 2.43979,0.93998 0.850125,0.93997 0.850125,2.70243 v 6.0269 h -2.806104 v -6.0269 q 0,-0.86395 -0.615131,-0.86395 -0.594396,0 -0.594396,0.86395 v 6.0269 z"
         style="fill:#483e37;stroke-width:0.3538731"
         id="path6318" />
    </g>
    <g
       transform="matrix(1.3374732,0,0,1.3374732,-206.31107,11.136018)"
       id="g7581"
       inkscape:export-xdpi="300"
       inkscape:export-ydpi="300">
      <g
         aria-label="XAVIER"
         style="font-style:normal;font-variant:normal;font-weight:normal;font-stretch:normal;font-size:10.58333302px;line-height:1.25;font-family:'Bauhaus 93';-inkscape-font-specification:'Bauhaus 93, ';letter-spacing:0px;word-spacing:0px;fill:#483e37;fill-opacity:1;stroke:none;stroke-width:0.26458332"
         id="text7579">
        <path
           d="m 163.55872,198.14317 -1.83452,3.43132 1.89653,3.62252 h -2.20659 l -0.86816,-1.71049 -0.73381,1.71049 h -2.17041 l 1.93787,-3.56568 -1.83451,-3.48816 h 2.18591 l 0.82166,1.60197 0.66145,-1.60197 z"
           style="fill:#483e37;stroke-width:0.26458332"
           id="path6299" />
        <path
           d="m 166.53011,201.65717 v 1.86035 h -0.60461 v 1.67949 h -2.09807 v -4.48552 q 0,-1.30224 0.70797,-2.02055 0.71314,-0.72347 1.99988,-0.72347 1.24023,0 1.83451,0.65629 0.59428,0.65113 0.59428,2.01539 v 4.55786 h -2.09806 v -4.41834 q 0,-0.41341 -0.0982,-0.57361 -0.0982,-0.16019 -0.3514,-0.16019 -0.49092,0 -0.49092,0.7338 v 0.8785 z"
           style="fill:#483e37;stroke-width:0.26458332"
           id="path6301" />
        <path
           d="m 175.30477,198.14317 -3.07475,7.45691 -3.05408,-7.45691 h 2.4288 l 0.64595,2.20142 0.71314,-2.20142 z"
           style="fill:#483e37;stroke-width:0.26458332"
           id="path6303" />
        <path
           d="m 177.87309,198.14317 v 7.05384 h -2.09807 v -7.05384 z"
           style="fill:#483e37;stroke-width:0.26458332"
           id="path6305" />
        <path
           d="m 183.05107,200.88719 v 1.57097 h -1.36943 q -0.27905,0 -0.39791,0.0827 -0.11369,0.0827 -0.11369,0.27905 0,0.22221 0.11886,0.29456 0.11886,0.0672 0.48576,0.0672 h 1.41076 v 2.01538 h -1.64847 q -1.16272,0 -1.77767,-0.55294 -0.61495,-0.55811 -0.61495,-1.60714 v -2.76469 q 0,-1.01286 0.57877,-1.57096 0.58395,-0.55811 1.63815,-0.55811 h 1.82417 v 2.02572 h -1.33841 q -0.54261,0 -0.54261,0.3514 0,0.2067 0.12919,0.28939 0.12919,0.0775 0.45992,0.0775 z"
           style="fill:#483e37;stroke-width:0.26458332"
           id="path6307" />
        <path
           d="m 186.49272,200.0397 v 5.15731 h -2.09807 v -7.05384 h 2.69234 q 1.2299,0 1.90686,0.60979 0.75448,0.68212 0.75448,1.73116 0,1.0697 -0.93534,1.8035 l 1.20923,2.90939 h -2.20142 l -1.01803,-2.27377 v -1.81384 h 0.16537 q 0.66146,0 0.66146,-0.56844 0,-0.50126 -0.76481,-0.50126 z"
           style="fill:#483e37;stroke-width:0.26458332"
           id="path6309" />
      </g>
    </g>
    <rect
       inkscape:export-ydpi="300"
       inkscape:export-xdpi="300"
       y="221.21498"
       x="0.66873658"
       height="68.094109"
       width="51.579193"
       id="rect5480"
       style="opacity:1;fill:none;fill-opacity:1;stroke:#483e37;stroke-width:1.33747315;stroke-linejoin:miter;stroke-miterlimit:4;stroke-dasharray:none;stroke-dashoffset:0;stroke-opacity:1" />
    <g
       aria-label="arquitetura"
       transform="scale(1.1558335,0.86517651)"
       style="font-style:normal;font-variant:normal;font-weight:normal;font-stretch:normal;font-size:10.765522px;line-height:1.25;font-family:'Bauhaus 93';-inkscape-font-specification:'Bauhaus 93, ';letter-spacing:0px;word-spacing:0px;fill:#483e37;fill-opacity:1;stroke:none;stroke-width:0.2691381"
       id="text5588">
      <path
         d="m 3.0644974,341.66724 c -0.050478,-0.27763 -0.067304,-0.61416 -0.067304,-0.94226 v -1.53118 c 0,-0.83289 -0.201913,-1.70785 -1.4554561,-1.70785 -0.57208679,0 -1.05163013,0.17668 -1.27878224,0.31129 l 0.20191299,0.74035 c 0.24397819,-0.15144 0.51319551,-0.23557 0.84130415,-0.23557 0.3869999,0 0.5804998,0.23557 0.5804998,0.55526 v 0.0925 c -0.93384757,0.008 -1.88452121,0.45431 -1.88452121,1.53118 0,0.73193 0.46271726,1.25354 1.08528231,1.25354 0.3617608,0 0.6814563,-0.15143 0.9086084,-0.47113 h 0.016826 l 0.058891,0.40383 z m -1.1441736,-1.2872 c 0,0.0673 -0.00841,0.13461 -0.025239,0.1935 -0.075717,0.24398 -0.2776303,0.35335 -0.4543042,0.35335 -0.1682608,0 -0.3954129,-0.15144 -0.3954129,-0.56368 0,-0.57208 0.5047825,-0.68986 0.8749563,-0.69828 z"
         style="font-style:normal;font-variant:normal;font-weight:bold;font-stretch:condensed;font-size:8.41304111px;line-height:1.39999998;font-family:'Myriad Pro';-inkscape-font-specification:'Myriad Pro Bold Condensed';fill:#483e37;stroke-width:0.2691381"
         id="path6276" />
      <path
         d="m 3.7701413,341.66724 h 1.1105214 v -2.08644 c 0,-0.17667 0.016826,-0.31969 0.042065,-0.41224 0.1261956,-0.42906 0.4374781,-0.58891 0.6730433,-0.58891 0.092543,0 0.1682608,0 0.2355651,0.0168 v -1.0937 c -0.067304,-0.0168 -0.1261956,-0.0168 -0.2355651,-0.0168 -0.3028695,0 -0.6309781,0.22716 -0.816065,0.66464 h -0.025239 l -0.058891,-0.59733 H 3.7364891 c 0.016826,0.37859 0.033652,0.82448 0.033652,1.23672 z"
         style="font-style:normal;font-variant:normal;font-weight:bold;font-stretch:condensed;font-size:8.41304111px;line-height:1.39999998;font-family:'Myriad Pro';-inkscape-font-specification:'Myriad Pro Bold Condensed';fill:#483e37;stroke-width:0.2691381"
         id="path6278" />
      <path
         d="m 8.1198149,343.28254 h 1.1021084 v -4.42526 c 0,-0.48796 0.016826,-0.93385 0.033652,-1.30402 H 8.3049018 l -0.058891,0.43748 -0.016826,-0.008 c -0.1766738,-0.37858 -0.4879564,-0.49637 -0.7571737,-0.49637 -0.7824128,0 -1.3881518,0.82448 -1.3881518,2.21263 0,1.11053 0.4458912,2.03596 1.2367171,2.03596 0.3533477,0 0.614152,-0.17667 0.7824128,-0.42065 h 0.016826 z m 0,-3.07917 c 0,0.0841 -0.00841,0.17667 -0.042065,0.26921 -0.075717,0.26081 -0.2271521,0.36177 -0.3701738,0.36177 -0.3365217,0 -0.5216086,-0.47114 -0.5216086,-1.2199 0,-0.74876 0.1766739,-1.20306 0.5216086,-1.20306 0.1682608,0 0.3196955,0.15143 0.3785868,0.40383 0.025239,0.0673 0.033652,0.16826 0.033652,0.24397 z"
         style="font-style:normal;font-variant:normal;font-weight:bold;font-stretch:condensed;font-size:8.41304111px;line-height:1.39999998;font-family:'Myriad Pro';-inkscape-font-specification:'Myriad Pro Bold Condensed';fill:#483e37;stroke-width:0.2691381"
         id="path6280" />
      <path
         d="m 13.001614,337.55326 h -1.102108 v 2.62487 c 0,0.14302 -0.02524,0.26922 -0.06731,0.35335 -0.05048,0.1346 -0.168261,0.27763 -0.353347,0.27763 -0.311283,0 -0.41224,-0.34494 -0.41224,-0.88337 v -2.37248 H 9.9560931 v 2.49026 c 0,1.11052 0.3196959,1.69102 1.1021079,1.69102 0.420653,0 0.757174,-0.22715 0.950674,-0.50478 h 0.01683 l 0.05889,0.43748 h 0.950674 c -0.01683,-0.387 -0.03365,-0.81607 -0.03365,-1.25355 z"
         style="font-style:normal;font-variant:normal;font-weight:bold;font-stretch:condensed;font-size:8.41304111px;line-height:1.39999998;font-family:'Myriad Pro';-inkscape-font-specification:'Myriad Pro Bold Condensed';fill:#483e37;stroke-width:0.2691381"
         id="path6282" />
      <path
         d="m 14.88758,341.66724 v -4.11398 h -1.102108 v 4.11398 z m -0.563673,-5.805 c -0.30287,0 -0.572087,0.22715 -0.563674,0.59732 -0.0084,0.35335 0.243978,0.59733 0.546848,0.59733 0.336521,0 0.588912,-0.24398 0.580499,-0.59733 0,-0.37017 -0.243978,-0.59732 -0.563673,-0.59732 z"
         style="font-style:normal;font-variant:normal;font-weight:bold;font-stretch:condensed;font-size:8.41304111px;line-height:1.39999998;font-family:'Myriad Pro';-inkscape-font-specification:'Myriad Pro Bold Condensed';fill:#483e37;stroke-width:0.2691381"
         id="path6284" />
      <path
         d="m 15.852189,336.70354 v 0.84972 h -0.487957 v 0.78241 h 0.487957 v 1.94341 c 0,0.64781 0.126195,0.95909 0.353347,1.17783 0.1935,0.18509 0.471131,0.2608 0.790826,0.2608 0.294457,0 0.521609,-0.0337 0.673043,-0.0757 l -0.0084,-0.85813 c -0.09254,0.0168 -0.176673,0.0252 -0.286043,0.0252 -0.218739,0 -0.420652,-0.11779 -0.420652,-0.59733 v -1.87611 h 0.807652 v -0.78241 h -0.807652 v -1.11052 z"
         style="font-style:normal;font-variant:normal;font-weight:bold;font-stretch:condensed;font-size:8.41304111px;line-height:1.39999998;font-family:'Myriad Pro';-inkscape-font-specification:'Myriad Pro Bold Condensed';fill:#483e37;stroke-width:0.2691381"
         id="path6286" />
      <path
         d="m 21.090884,340.00145 c 0.02524,-0.11778 0.03365,-0.27763 0.03365,-0.57208 0,-1.24513 -0.513196,-1.94342 -1.396565,-1.94342 -0.933848,0 -1.648956,0.82448 -1.648956,2.20422 0,1.2872 0.614152,2.02754 1.733086,2.02754 0.420652,0 0.849717,-0.0757 1.135761,-0.18508 l -0.151435,-0.79083 c -0.1935,0.0673 -0.47113,0.13461 -0.782413,0.13461 -0.487956,0 -0.85813,-0.23556 -0.874956,-0.87496 z m -1.943412,-0.774 c 0.0084,-0.41223 0.151435,-0.94226 0.513195,-0.94226 0.328109,0 0.462718,0.41224 0.462718,0.94226 z"
         style="font-style:normal;font-variant:normal;font-weight:bold;font-stretch:condensed;font-size:8.41304111px;line-height:1.39999998;font-family:'Myriad Pro';-inkscape-font-specification:'Myriad Pro Bold Condensed';fill:#483e37;stroke-width:0.2691381"
         id="path6288" />
      <path
         d="m 21.948357,336.70354 v 0.84972 h -0.487956 v 0.78241 h 0.487956 v 1.94341 c 0,0.64781 0.126196,0.95909 0.353348,1.17783 0.1935,0.18509 0.47113,0.2608 0.790826,0.2608 0.294456,0 0.521608,-0.0337 0.673043,-0.0757 l -0.0084,-0.85813 c -0.09254,0.0168 -0.176674,0.0252 -0.286043,0.0252 -0.21874,0 -0.420653,-0.11779 -0.420653,-0.59733 v -1.87611 h 0.807652 v -0.78241 h -0.807652 v -1.11052 z"
         style="font-style:normal;font-variant:normal;font-weight:bold;font-stretch:condensed;font-size:8.41304111px;line-height:1.39999998;font-family:'Myriad Pro';-inkscape-font-specification:'Myriad Pro Bold Condensed';fill:#483e37;stroke-width:0.2691381"
         id="path6290" />
      <path
         d="m 27.37937,337.55326 h -1.102108 v 2.62487 c 0,0.14302 -0.02524,0.26922 -0.06731,0.35335 -0.05048,0.1346 -0.16826,0.27763 -0.353347,0.27763 -0.311283,0 -0.412239,-0.34494 -0.412239,-0.88337 v -2.37248 h -1.110522 v 2.49026 c 0,1.11052 0.319696,1.69102 1.102109,1.69102 0.420652,0 0.757173,-0.22715 0.950673,-0.50478 h 0.01683 l 0.05889,0.43748 h 0.950673 c -0.01683,-0.387 -0.03365,-0.81607 -0.03365,-1.25355 z"
         style="font-style:normal;font-variant:normal;font-weight:bold;font-stretch:condensed;font-size:8.41304111px;line-height:1.39999998;font-family:'Myriad Pro';-inkscape-font-specification:'Myriad Pro Bold Condensed';fill:#483e37;stroke-width:0.2691381"
         id="path6292" />
      <path
         d="m 28.154815,341.66724 h 1.110522 v -2.08644 c 0,-0.17667 0.01683,-0.31969 0.04207,-0.41224 0.126195,-0.42906 0.437478,-0.58891 0.673043,-0.58891 0.09254,0 0.168261,0 0.235565,0.0168 v -1.0937 c -0.0673,-0.0168 -0.126195,-0.0168 -0.235565,-0.0168 -0.302869,0 -0.630978,0.22716 -0.816065,0.66464 h -0.02524 l -0.05889,-0.59733 h -0.959087 c 0.01683,0.37859 0.03365,0.82448 0.03365,1.23672 z"
         style="font-style:normal;font-variant:normal;font-weight:bold;font-stretch:condensed;font-size:8.41304111px;line-height:1.39999998;font-family:'Myriad Pro';-inkscape-font-specification:'Myriad Pro Bold Condensed';fill:#483e37;stroke-width:0.2691381"
         id="path6294" />
      <path
         d="m 33.479613,341.66724 c -0.05048,-0.27763 -0.0673,-0.61416 -0.0673,-0.94226 v -1.53118 c 0,-0.83289 -0.201913,-1.70785 -1.455456,-1.70785 -0.572087,0 -1.05163,0.17668 -1.278782,0.31129 l 0.201913,0.74035 c 0.243978,-0.15144 0.513196,-0.23557 0.841304,-0.23557 0.387,0 0.5805,0.23557 0.5805,0.55526 v 0.0925 c -0.933848,0.008 -1.884521,0.45431 -1.884521,1.53118 0,0.73193 0.462717,1.25354 1.085282,1.25354 0.361761,0 0.681456,-0.15143 0.908608,-0.47113 h 0.01683 l 0.05889,0.40383 z m -1.144174,-1.2872 c 0,0.0673 -0.0084,0.13461 -0.02524,0.1935 -0.07572,0.24398 -0.27763,0.35335 -0.454304,0.35335 -0.168261,0 -0.395413,-0.15144 -0.395413,-0.56368 0,-0.57208 0.504782,-0.68986 0.874956,-0.69828 z"
         style="font-style:normal;font-variant:normal;font-weight:bold;font-stretch:condensed;font-size:8.41304111px;line-height:1.39999998;font-family:'Myriad Pro';-inkscape-font-specification:'Myriad Pro Bold Condensed';fill:#483e37;stroke-width:0.2691381"
         id="path6296" />
    </g>
    <text
       transform="scale(1.1558335,0.86517651)"
       xml:space="preserve"
       style="font-style:normal;font-variant:normal;font-weight:normal;font-stretch:normal;font-size:10.765522px;line-height:1.25;font-family:'Bauhaus 93';-inkscape-font-specification:'Bauhaus 93, ';letter-spacing:0px;word-spacing:0px;fill:#483e37;fill-opacity:1;stroke:none;stroke-width:0.2691381"
       x="78.365807"
       y="332.41882"
       id="text5624"
       inkscape:export-xdpi="300"
       inkscape:export-ydpi="300"><tspan
         sodipodi:role="line"
         id="tspan5622"
         x="78.365807"
         y="342.3147"
         style="font-style:normal;font-variant:normal;font-weight:bold;font-stretch:condensed;font-size:8.41304111px;line-height:1.39999998;font-family:'Myriad Pro';-inkscape-font-specification:'Myriad Pro Bold Condensed';fill:#483e37;stroke-width:0.2691381" /></text>
    <text
       transform="scale(1.1558335,0.86517651)"
       xml:space="preserve"
       style="font-style:normal;font-variant:normal;font-weight:normal;font-stretch:normal;font-size:10.765522px;line-height:1.25;font-family:'Bauhaus 93';-inkscape-font-specification:'Bauhaus 93, ';letter-spacing:0px;word-spacing:0px;fill:#483e37;fill-opacity:1;stroke:none;stroke-width:0.2691381"
       x="78.365807"
       y="332.41882"
       id="text5712"
       inkscape:export-xdpi="300"
       inkscape:export-ydpi="300"><tspan
         sodipodi:role="line"
         id="tspan5710"
         x="78.365807"
         y="342.3147"
         style="font-style:normal;font-variant:normal;font-weight:bold;font-stretch:condensed;font-size:8.41304111px;line-height:1.39999998;font-family:'Myriad Pro';-inkscape-font-specification:'Myriad Pro Bold Condensed';fill:#483e37;stroke-width:0.2691381" /></text>
    <text
       transform="scale(1.1558335,0.86517651)"
       xml:space="preserve"
       style="font-style:normal;font-variant:normal;font-weight:normal;font-stretch:normal;font-size:10.765522px;line-height:1.25;font-family:'Bauhaus 93';-inkscape-font-specification:'Bauhaus 93, ';letter-spacing:0px;word-spacing:0px;fill:#483e37;fill-opacity:1;stroke:none;stroke-width:0.2691381"
       x="78.365807"
       y="332.41882"
       id="text5728"
       inkscape:export-xdpi="300"
       inkscape:export-ydpi="300"><tspan
         sodipodi:role="line"
         id="tspan5726"
         x="78.365807"
         y="342.3147"
         style="font-style:normal;font-variant:normal;font-weight:bold;font-stretch:condensed;font-size:8.41304111px;line-height:1.39999998;font-family:'Myriad Pro';-inkscape-font-specification:'Myriad Pro Bold Condensed';fill:#483e37;stroke-width:0.2691381" /></text>
    <text
       inkscape:export-ydpi="300"
       inkscape:export-xdpi="300"
       id="text5732"
       y="332.41882"
       x="78.365807"
       style="font-style:normal;font-variant:normal;font-weight:normal;font-stretch:normal;font-size:10.765522px;line-height:1.25;font-family:'Bauhaus 93';-inkscape-font-specification:'Bauhaus 93, ';letter-spacing:0px;word-spacing:0px;fill:#483e37;fill-opacity:1;stroke:none;stroke-width:0.2691381"
       xml:space="preserve"
       transform="scale(1.1558335,0.86517651)"><tspan
         style="font-style:normal;font-variant:normal;font-weight:bold;font-stretch:condensed;font-size:8.41304111px;line-height:1.39999998;font-family:'Myriad Pro';-inkscape-font-specification:'Myriad Pro Bold Condensed';fill:#483e37;stroke-width:0.2691381"
         y="342.3147"
         x="78.365807"
         id="tspan5730"
         sodipodi:role="line" /></text>
    <text
       transform="scale(1.1558335,0.86517651)"
       xml:space="preserve"
       style="font-style:normal;font-variant:normal;font-weight:normal;font-stretch:normal;font-size:10.765522px;line-height:1.25;font-family:'Bauhaus 93';-inkscape-font-specification:'Bauhaus 93, ';letter-spacing:0px;word-spacing:0px;fill:#483e37;fill-opacity:1;stroke:none;stroke-width:0.2691381"
       x="78.365807"
       y="332.41882"
       id="text5736"
       inkscape:export-xdpi="300"
       inkscape:export-ydpi="300"><tspan
         sodipodi:role="line"
         id="tspan5734"
         x="78.365807"
         y="342.3147"
         style="font-style:normal;font-variant:normal;font-weight:bold;font-stretch:condensed;font-size:8.41304111px;line-height:1.39999998;font-family:'Myriad Pro';-inkscape-font-specification:'Myriad Pro Bold Condensed';fill:#483e37;stroke-width:0.2691381" /></text>
    <text
       inkscape:export-ydpi="300"
       inkscape:export-xdpi="300"
       id="text5940"
       y="332.41882"
       x="78.365807"
       style="font-style:normal;font-variant:normal;font-weight:normal;font-stretch:normal;font-size:10.765522px;line-height:1.25;font-family:'Bauhaus 93';-inkscape-font-specification:'Bauhaus 93, ';letter-spacing:0px;word-spacing:0px;fill:#483e37;fill-opacity:1;stroke:none;stroke-width:0.2691381"
       xml:space="preserve"
       transform="scale(1.1558335,0.86517651)"><tspan
         style="font-style:normal;font-variant:normal;font-weight:bold;font-stretch:condensed;font-size:8.41304111px;line-height:1.39999998;font-family:'Myriad Pro';-inkscape-font-specification:'Myriad Pro Bold Condensed';fill:#483e37;stroke-width:0.2691381"
         y="342.3147"
         x="78.365807"
         id="tspan5938"
         sodipodi:role="line" /></text>
  </g>
</svg>
